<mxfile host="app.diagrams.net" modified="2021-09-24T10:08:50.016Z" agent="5.0 (Windows NT 10.0; Win64; x64) AppleWebKit/537.36 (KHTML, like Gecko) Chrome/93.0.4577.82 Safari/537.36" etag="uOEbOwukN_-OuzmU7MIE" version="15.3.1" type="github" pages="3">
  <diagram id="sdiNdK6mJhZwA0PpeNQS" name="Developer Converter Tool Mockup v1">
    <mxGraphModel dx="1102" dy="614" grid="1" gridSize="10" guides="1" tooltips="1" connect="1" arrows="1" fold="1" page="1" pageScale="1" pageWidth="850" pageHeight="1100" math="0" shadow="0">
      <root>
        <mxCell id="0" />
        <mxCell id="1" parent="0" />
        <mxCell id="-MNTzH6FZE59j33IxXkd-1" value="" style="whiteSpace=wrap;html=1;aspect=fixed;fillColor=#eeeeee;strokeColor=#36393d;" vertex="1" parent="1">
          <mxGeometry x="220" y="310" width="670" height="670" as="geometry" />
        </mxCell>
        <mxCell id="-MNTzH6FZE59j33IxXkd-2" value="" style="rounded=0;whiteSpace=wrap;html=1;align=left;" vertex="1" parent="1">
          <mxGeometry x="310" y="420" width="490" height="210" as="geometry" />
        </mxCell>
        <mxCell id="-MNTzH6FZE59j33IxXkd-3" value="&amp;lt; File path of the selected file &amp;gt;" style="rounded=0;whiteSpace=wrap;html=1;fillColor=#bac8d3;strokeColor=#23445d;" vertex="1" parent="1">
          <mxGeometry x="310" y="700" width="490" height="50" as="geometry" />
        </mxCell>
        <mxCell id="-MNTzH6FZE59j33IxXkd-4" value="&lt;b&gt;Base 64 Encode&lt;/b&gt;" style="rounded=0;whiteSpace=wrap;html=1;fillColor=#dae8fc;strokeColor=#6c8ebf;" vertex="1" parent="1">
          <mxGeometry x="310" y="820" width="220" height="40" as="geometry" />
        </mxCell>
        <mxCell id="-MNTzH6FZE59j33IxXkd-5" value="&lt;b&gt;Choose File&lt;/b&gt;" style="rounded=0;whiteSpace=wrap;html=1;fillColor=#f5f5f5;strokeColor=#666666;gradientColor=#b3b3b3;" vertex="1" parent="1">
          <mxGeometry x="320" y="710" width="100" height="30" as="geometry" />
        </mxCell>
        <mxCell id="-MNTzH6FZE59j33IxXkd-6" value="&lt;b&gt;Base 64 Decode&lt;/b&gt;" style="rounded=0;whiteSpace=wrap;html=1;fillColor=#dae8fc;strokeColor=#6c8ebf;" vertex="1" parent="1">
          <mxGeometry x="575" y="820" width="225" height="40" as="geometry" />
        </mxCell>
        <mxCell id="-MNTzH6FZE59j33IxXkd-7" value="&lt;b&gt;Download Base64 Encoded File&lt;br&gt;&lt;/b&gt;&lt;span style=&quot;font-size: 11px&quot;&gt;(Higly Recommended for a large data set)&lt;/span&gt;&lt;b&gt;&lt;br&gt;&lt;/b&gt;" style="rounded=0;whiteSpace=wrap;html=1;fillColor=#dae8fc;strokeColor=#6c8ebf;" vertex="1" parent="1">
          <mxGeometry x="310" y="880" width="220" height="40" as="geometry" />
        </mxCell>
        <mxCell id="-MNTzH6FZE59j33IxXkd-8" value="&lt;b&gt;Download Base64 Decoded File&lt;br&gt;&lt;/b&gt;&lt;span style=&quot;font-size: 11px&quot;&gt;(Higly Recommended for a large data set)&lt;/span&gt;&lt;b&gt;&lt;br&gt;&lt;/b&gt;" style="rounded=0;whiteSpace=wrap;html=1;fillColor=#dae8fc;strokeColor=#6c8ebf;" vertex="1" parent="1">
          <mxGeometry x="575" y="880" width="225" height="40" as="geometry" />
        </mxCell>
        <mxCell id="-MNTzH6FZE59j33IxXkd-9" value="&lt;b&gt;Copy to Clipboard&lt;/b&gt;" style="rounded=0;whiteSpace=wrap;html=1;fillColor=#0050ef;strokeColor=#001DBC;fontColor=#ffffff;" vertex="1" parent="1">
          <mxGeometry x="690" y="640" width="110" height="30" as="geometry" />
        </mxCell>
        <mxCell id="-MNTzH6FZE59j33IxXkd-10" value="&amp;lt; Validation Messages &amp;gt;" style="rounded=0;whiteSpace=wrap;html=1;fillColor=#f8cecc;strokeColor=#b85450;" vertex="1" parent="1">
          <mxGeometry x="310" y="760" width="490" height="40" as="geometry" />
        </mxCell>
        <mxCell id="-MNTzH6FZE59j33IxXkd-11" value="&lt;font style=&quot;font-size: 27px&quot;&gt;Developer Converter Tools&lt;/font&gt;" style="text;html=1;strokeColor=none;fillColor=none;align=center;verticalAlign=middle;whiteSpace=wrap;rounded=0;" vertex="1" parent="1">
          <mxGeometry x="385" y="320" width="340" height="40" as="geometry" />
        </mxCell>
        <mxCell id="-MNTzH6FZE59j33IxXkd-12" value="&lt;b&gt;Option 2: Upload your file&lt;/b&gt;" style="text;html=1;strokeColor=none;fillColor=none;align=left;verticalAlign=middle;whiteSpace=wrap;rounded=0;" vertex="1" parent="1">
          <mxGeometry x="310" y="680" width="250" height="20" as="geometry" />
        </mxCell>
        <mxCell id="-MNTzH6FZE59j33IxXkd-13" value="&lt;b&gt;Option 1: Copy Paste your input here&lt;/b&gt;" style="text;html=1;strokeColor=none;fillColor=none;align=left;verticalAlign=middle;whiteSpace=wrap;rounded=0;" vertex="1" parent="1">
          <mxGeometry x="310" y="400" width="250" height="20" as="geometry" />
        </mxCell>
      </root>
    </mxGraphModel>
  </diagram>
  <diagram id="pUTpId8SkIl5sos_nFc6" name="Developer Converter Tool Mockup v2">
    <mxGraphModel dx="1102" dy="614" grid="1" gridSize="10" guides="1" tooltips="1" connect="1" arrows="1" fold="1" page="1" pageScale="1" pageWidth="850" pageHeight="1100" math="0" shadow="0">
      <root>
        <mxCell id="2p9pva0VdXrjTuQ6DaOs-0" />
        <mxCell id="2p9pva0VdXrjTuQ6DaOs-1" parent="2p9pva0VdXrjTuQ6DaOs-0" />
        <mxCell id="jZi_DAeaA1uX75Zlgzrn-0" value="" style="whiteSpace=wrap;html=1;aspect=fixed;fillColor=#eeeeee;strokeColor=#36393d;" vertex="1" parent="2p9pva0VdXrjTuQ6DaOs-1">
          <mxGeometry x="220" y="310" width="670" height="670" as="geometry" />
        </mxCell>
        <mxCell id="jZi_DAeaA1uX75Zlgzrn-1" value="" style="rounded=0;whiteSpace=wrap;html=1;align=left;" vertex="1" parent="2p9pva0VdXrjTuQ6DaOs-1">
          <mxGeometry x="310" y="420" width="490" height="210" as="geometry" />
        </mxCell>
        <mxCell id="jZi_DAeaA1uX75Zlgzrn-2" value="&amp;lt; File path of the selected file &amp;gt;" style="rounded=0;whiteSpace=wrap;html=1;fillColor=#bac8d3;strokeColor=#23445d;" vertex="1" parent="2p9pva0VdXrjTuQ6DaOs-1">
          <mxGeometry x="310" y="700" width="490" height="50" as="geometry" />
        </mxCell>
        <mxCell id="jZi_DAeaA1uX75Zlgzrn-3" value="&lt;b&gt;Choose File&lt;/b&gt;" style="rounded=0;whiteSpace=wrap;html=1;fillColor=#f5f5f5;strokeColor=#666666;gradientColor=#b3b3b3;" vertex="1" parent="2p9pva0VdXrjTuQ6DaOs-1">
          <mxGeometry x="320" y="710" width="100" height="30" as="geometry" />
        </mxCell>
        <mxCell id="jZi_DAeaA1uX75Zlgzrn-4" value="&lt;b&gt;Copy to Clipboard&lt;/b&gt;" style="rounded=0;whiteSpace=wrap;html=1;fillColor=#0050ef;strokeColor=#001DBC;fontColor=#ffffff;" vertex="1" parent="2p9pva0VdXrjTuQ6DaOs-1">
          <mxGeometry x="690" y="640" width="110" height="30" as="geometry" />
        </mxCell>
        <mxCell id="jZi_DAeaA1uX75Zlgzrn-5" value="&amp;lt; Validation messages &amp;gt;" style="rounded=0;whiteSpace=wrap;html=1;fillColor=#f8cecc;strokeColor=#b85450;" vertex="1" parent="2p9pva0VdXrjTuQ6DaOs-1">
          <mxGeometry x="310" y="760" width="490" height="40" as="geometry" />
        </mxCell>
        <mxCell id="jZi_DAeaA1uX75Zlgzrn-6" value="&lt;font style=&quot;font-size: 27px&quot;&gt;Developer Converter Tools&lt;/font&gt;" style="text;html=1;strokeColor=none;fillColor=none;align=center;verticalAlign=middle;whiteSpace=wrap;rounded=0;" vertex="1" parent="2p9pva0VdXrjTuQ6DaOs-1">
          <mxGeometry x="385" y="320" width="340" height="40" as="geometry" />
        </mxCell>
        <mxCell id="jZi_DAeaA1uX75Zlgzrn-7" value="&lt;font style=&quot;font-size: 14px&quot;&gt;Conversion Options&lt;/font&gt;" style="rounded=0;whiteSpace=wrap;html=1;fillColor=#d5e8d4;strokeColor=#82b366;" vertex="1" parent="2p9pva0VdXrjTuQ6DaOs-1">
          <mxGeometry x="445" y="819.99" width="220" height="40" as="geometry" />
        </mxCell>
        <mxCell id="jZi_DAeaA1uX75Zlgzrn-8" value="" style="triangle;whiteSpace=wrap;html=1;rotation=90;fillColor=#1A1A1A;" vertex="1" parent="2p9pva0VdXrjTuQ6DaOs-1">
          <mxGeometry x="640" y="833.12" width="10.62" height="13.75" as="geometry" />
        </mxCell>
        <mxCell id="jZi_DAeaA1uX75Zlgzrn-9" value="&lt;b&gt;Convert&lt;/b&gt;" style="rounded=0;whiteSpace=wrap;html=1;fillColor=#dae8fc;strokeColor=#6c8ebf;" vertex="1" parent="2p9pva0VdXrjTuQ6DaOs-1">
          <mxGeometry x="310" y="880" width="220" height="40" as="geometry" />
        </mxCell>
        <mxCell id="jZi_DAeaA1uX75Zlgzrn-10" value="&lt;b&gt;Convert and Download&lt;/b&gt;&lt;br&gt;&lt;font style=&quot;font-size: 11px&quot;&gt;(Higly Recommended for a large data set)&lt;/font&gt;" style="rounded=0;whiteSpace=wrap;html=1;fillColor=#dae8fc;strokeColor=#6c8ebf;" vertex="1" parent="2p9pva0VdXrjTuQ6DaOs-1">
          <mxGeometry x="580" y="880" width="220" height="40" as="geometry" />
        </mxCell>
        <mxCell id="jZi_DAeaA1uX75Zlgzrn-11" value="&lt;b&gt;Option 1: Copy Paste your input here&lt;/b&gt;" style="text;html=1;strokeColor=none;fillColor=none;align=left;verticalAlign=middle;whiteSpace=wrap;rounded=0;" vertex="1" parent="2p9pva0VdXrjTuQ6DaOs-1">
          <mxGeometry x="310" y="400" width="250" height="20" as="geometry" />
        </mxCell>
        <mxCell id="jZi_DAeaA1uX75Zlgzrn-12" value="&lt;b&gt;Option 2: Upload your file&lt;/b&gt;" style="text;html=1;strokeColor=none;fillColor=none;align=left;verticalAlign=middle;whiteSpace=wrap;rounded=0;" vertex="1" parent="2p9pva0VdXrjTuQ6DaOs-1">
          <mxGeometry x="310" y="680" width="250" height="20" as="geometry" />
        </mxCell>
      </root>
    </mxGraphModel>
  </diagram>
  <diagram id="vQpxNHNl-RiA6kKGgwRq" name="Developer Converter Tool Mockup v3">
    <mxGraphModel dx="1102" dy="614" grid="1" gridSize="10" guides="1" tooltips="1" connect="1" arrows="1" fold="1" page="1" pageScale="1" pageWidth="850" pageHeight="1100" math="0" shadow="0">
      <root>
        <mxCell id="2Bx_PMMwqrL1kO6f1dVa-0" />
        <mxCell id="2Bx_PMMwqrL1kO6f1dVa-1" parent="2Bx_PMMwqrL1kO6f1dVa-0" />
        <mxCell id="GWkDF0G3x-4dEuF3IIU9-0" value="" style="whiteSpace=wrap;html=1;aspect=fixed;fillColor=#eeeeee;strokeColor=#36393d;" vertex="1" parent="2Bx_PMMwqrL1kO6f1dVa-1">
          <mxGeometry x="220" y="310" width="670" height="670" as="geometry" />
        </mxCell>
        <mxCell id="GWkDF0G3x-4dEuF3IIU9-1" value="" style="rounded=0;whiteSpace=wrap;html=1;align=left;" vertex="1" parent="2Bx_PMMwqrL1kO6f1dVa-1">
          <mxGeometry x="310" y="420" width="490" height="210" as="geometry" />
        </mxCell>
        <mxCell id="GWkDF0G3x-4dEuF3IIU9-2" value="&amp;lt; File path of the selected file &amp;gt;" style="rounded=0;whiteSpace=wrap;html=1;fillColor=#bac8d3;strokeColor=#23445d;" vertex="1" parent="2Bx_PMMwqrL1kO6f1dVa-1">
          <mxGeometry x="310" y="700" width="490" height="50" as="geometry" />
        </mxCell>
        <mxCell id="GWkDF0G3x-4dEuF3IIU9-3" value="&lt;b&gt;Choose File&lt;/b&gt;" style="rounded=0;whiteSpace=wrap;html=1;fillColor=#f5f5f5;strokeColor=#666666;gradientColor=#b3b3b3;" vertex="1" parent="2Bx_PMMwqrL1kO6f1dVa-1">
          <mxGeometry x="320" y="710" width="100" height="30" as="geometry" />
        </mxCell>
        <mxCell id="GWkDF0G3x-4dEuF3IIU9-4" value="&lt;b&gt;Copy to Clipboard&lt;/b&gt;" style="rounded=0;whiteSpace=wrap;html=1;fillColor=#0050ef;strokeColor=#001DBC;fontColor=#ffffff;" vertex="1" parent="2Bx_PMMwqrL1kO6f1dVa-1">
          <mxGeometry x="690" y="640" width="110" height="30" as="geometry" />
        </mxCell>
        <mxCell id="GWkDF0G3x-4dEuF3IIU9-5" value="&amp;lt; Validation messages &amp;gt;" style="rounded=0;whiteSpace=wrap;html=1;fillColor=#f8cecc;strokeColor=#b85450;" vertex="1" parent="2Bx_PMMwqrL1kO6f1dVa-1">
          <mxGeometry x="310" y="760" width="490" height="40" as="geometry" />
        </mxCell>
        <mxCell id="GWkDF0G3x-4dEuF3IIU9-6" value="&lt;font style=&quot;font-size: 27px&quot;&gt;Developer Converter Tools&lt;/font&gt;" style="text;html=1;strokeColor=none;fillColor=none;align=center;verticalAlign=middle;whiteSpace=wrap;rounded=0;" vertex="1" parent="2Bx_PMMwqrL1kO6f1dVa-1">
          <mxGeometry x="385" y="320" width="340" height="40" as="geometry" />
        </mxCell>
        <mxCell id="GWkDF0G3x-4dEuF3IIU9-7" value="&lt;font style=&quot;font-size: 12px&quot;&gt;&lt;b&gt;Convert From&lt;/b&gt;&lt;/font&gt;" style="rounded=0;whiteSpace=wrap;html=1;fillColor=#d5e8d4;strokeColor=#82b366;" vertex="1" parent="2Bx_PMMwqrL1kO6f1dVa-1">
          <mxGeometry x="310" y="819.99" width="220" height="40" as="geometry" />
        </mxCell>
        <mxCell id="GWkDF0G3x-4dEuF3IIU9-8" value="" style="triangle;whiteSpace=wrap;html=1;rotation=90;fillColor=#1A1A1A;" vertex="1" parent="2Bx_PMMwqrL1kO6f1dVa-1">
          <mxGeometry x="510" y="833.12" width="10.62" height="13.75" as="geometry" />
        </mxCell>
        <mxCell id="GWkDF0G3x-4dEuF3IIU9-9" value="&lt;b&gt;Convert&lt;/b&gt;" style="rounded=0;whiteSpace=wrap;html=1;fillColor=#dae8fc;strokeColor=#6c8ebf;" vertex="1" parent="2Bx_PMMwqrL1kO6f1dVa-1">
          <mxGeometry x="310" y="880" width="220" height="40" as="geometry" />
        </mxCell>
        <mxCell id="GWkDF0G3x-4dEuF3IIU9-10" value="&lt;b&gt;Convert and Download&lt;/b&gt;&lt;br&gt;&lt;font style=&quot;font-size: 11px&quot;&gt;(Higly Recommended for a large data set)&lt;/font&gt;" style="rounded=0;whiteSpace=wrap;html=1;fillColor=#dae8fc;strokeColor=#6c8ebf;" vertex="1" parent="2Bx_PMMwqrL1kO6f1dVa-1">
          <mxGeometry x="580" y="880" width="220" height="40" as="geometry" />
        </mxCell>
        <mxCell id="GWkDF0G3x-4dEuF3IIU9-11" value="&lt;font style=&quot;font-size: 12px&quot;&gt;&lt;b&gt;Convert To&lt;/b&gt;&lt;/font&gt;" style="rounded=0;whiteSpace=wrap;html=1;fillColor=#d5e8d4;strokeColor=#82b366;" vertex="1" parent="2Bx_PMMwqrL1kO6f1dVa-1">
          <mxGeometry x="580" y="819.99" width="220" height="40" as="geometry" />
        </mxCell>
        <mxCell id="GWkDF0G3x-4dEuF3IIU9-12" value="" style="triangle;whiteSpace=wrap;html=1;rotation=90;fillColor=#1A1A1A;" vertex="1" parent="2Bx_PMMwqrL1kO6f1dVa-1">
          <mxGeometry x="774.3800000000001" y="833.12" width="10.62" height="13.75" as="geometry" />
        </mxCell>
        <mxCell id="GWkDF0G3x-4dEuF3IIU9-13" value="&lt;b&gt;Option 1: Copy Paste your input here&lt;/b&gt;" style="text;html=1;strokeColor=none;fillColor=none;align=left;verticalAlign=middle;whiteSpace=wrap;rounded=0;" vertex="1" parent="2Bx_PMMwqrL1kO6f1dVa-1">
          <mxGeometry x="310" y="400" width="250" height="20" as="geometry" />
        </mxCell>
        <mxCell id="GWkDF0G3x-4dEuF3IIU9-14" value="&lt;b&gt;Option 2: Upload your file&lt;/b&gt;" style="text;html=1;strokeColor=none;fillColor=none;align=left;verticalAlign=middle;whiteSpace=wrap;rounded=0;" vertex="1" parent="2Bx_PMMwqrL1kO6f1dVa-1">
          <mxGeometry x="310" y="680" width="250" height="20" as="geometry" />
        </mxCell>
      </root>
    </mxGraphModel>
  </diagram>
</mxfile>
